<svg width="80" height="78" viewBox="0 0 80 78" fill="none" xmlns="http://www.w3.org/2000/svg">
<path fill-rule="evenodd" clip-rule="evenodd" d="M28.1065 0.0812376C26.846 0.242696 25.2731 0.872905 23.945 1.75311C23.3564 2.14374 21.7783 3.69061 21.6742 3.98228C21.6325 4.09686 21.5387 4.19061 21.471 4.19061C21.4033 4.19061 21.346 4.2427 21.346 4.29999C21.346 4.36249 21.1273 4.76874 20.8564 5.21145C20.5908 5.65415 20.3408 6.17499 20.2992 6.3729C20.2575 6.57082 20.1794 6.76353 20.1221 6.79999C20.0648 6.83645 20.0179 6.97186 20.0179 7.09686C20.0179 7.31561 19.9242 7.33124 18.596 7.31561C16.6065 7.29478 15.57 7.4354 14.5179 7.8729C13.6533 8.23228 12.2835 8.94582 12.2835 9.03436C12.2835 9.08645 12.1689 9.16457 12.0387 9.21145C11.5752 9.35728 9.25228 11.7844 8.97624 12.4094C8.92937 12.5083 8.78874 12.7531 8.65332 12.9562C8.40853 13.3312 8.37728 13.3989 7.92416 14.4042C7.58562 15.1698 7.21062 17.5396 7.26791 18.5448C7.31999 19.4406 7.50749 20.4562 7.76791 21.2687C7.87208 21.5864 7.93978 21.8677 7.91374 21.8885C7.8877 21.9146 7.48666 22.1906 7.02312 22.5031C6.02312 23.1698 4.23666 24.951 3.79395 25.7114C3.62207 26.0083 3.31478 26.6021 3.10124 27.0344C2.91895 27.4094 2.73145 27.7896 2.54395 28.1646C2.4502 28.3521 2.37207 28.6594 2.37207 28.8521C2.37207 29.0396 2.3252 29.2271 2.2627 29.2635C2.06999 29.3833 1.87207 31.5708 1.95541 32.675C2.03874 33.7531 2.44499 35.425 2.78874 36.0917C2.89291 36.2896 2.97624 36.5344 2.97624 36.6385C2.97624 36.7427 3.02832 36.826 3.09603 36.826C3.31478 36.826 3.22103 37.3729 2.97624 37.55C2.84082 37.6437 2.73145 37.7739 2.73145 37.8364C2.73145 37.8989 2.65333 38.0396 2.55957 38.1437C1.92937 38.8312 1.72103 39.1281 1.4502 39.7271C1.34603 39.9562 1.2002 40.2167 1.13249 40.3052C0.877283 40.6177 0.299157 42.4667 0.122074 43.5344C-0.0289682 44.4302 -0.0341752 44.8937 0.0751995 46.1854C0.148117 47.05 0.252284 47.8104 0.309574 47.8781C0.361658 47.9458 0.434574 48.1646 0.471032 48.3677C0.564783 48.8989 0.856449 49.6229 1.08562 49.8885C1.19499 50.0187 1.28353 50.2062 1.28353 50.3052C1.28353 50.4094 1.5127 50.7948 1.79916 51.1646C2.08041 51.5344 2.36687 51.9406 2.43978 52.0604C2.66895 52.4562 4.31999 53.9354 4.75749 54.1385C4.90853 54.2114 5.02832 54.3104 5.02832 54.3677C5.02832 54.425 5.11166 54.4719 5.21062 54.4719C5.39291 54.4719 5.75749 54.6437 6.11687 54.9042C6.21582 54.9719 6.53353 55.0969 6.81999 55.1802C7.21582 55.2948 7.3252 55.3781 7.28353 55.5344C6.90333 56.9198 6.81478 57.7531 6.89291 59.2427C6.93978 60.1073 7.02832 60.8677 7.09082 60.9302C7.15332 60.9927 7.20541 61.1958 7.20541 61.3781C7.20541 61.8104 7.55957 62.6698 8.16374 63.7167C8.36166 64.05 8.5752 64.4458 8.64291 64.5969C8.81999 64.9771 11.1742 67.3208 11.6169 67.5604C12.0283 67.7792 13.1898 68.3417 13.5492 68.4979C14.846 69.0552 16.57 69.3625 18.1429 69.3156C18.6794 69.3 19.1742 69.326 19.2471 69.3677C19.32 69.4146 19.4137 69.6281 19.4606 69.8417C19.5648 70.3625 20.4606 72.1854 20.7887 72.5292C20.9294 72.6802 21.1377 72.9354 21.2575 73.0917C22.0439 74.1437 23.5075 75.3521 24.669 75.9042C25.07 76.0917 25.4867 76.2948 25.6012 76.3521C26.1585 76.6437 27.7523 76.9406 29.2315 77.0292C32.1429 77.201 34.6273 76.2739 36.7783 74.2219C38.221 72.8417 38.9762 71.4146 39.1325 69.7583C39.2783 68.201 39.1689 51.5396 39.0075 50.7844C38.8617 50.1073 38.596 49.3208 38.471 49.1958C38.4242 49.1489 38.3877 49.0344 38.3877 48.9354C38.3877 48.7062 37.4606 47.4198 36.7992 46.7323C36.096 46.0083 34.7002 45.0917 33.846 44.8C33.4658 44.6646 32.846 44.5604 32.471 44.5604C31.846 44.5604 31.7523 44.5969 31.3773 44.9823C30.9867 45.3833 30.9658 45.4562 30.9815 46.1646C31.0023 46.8521 31.0335 46.9458 31.3877 47.2427C31.596 47.4198 31.9815 47.6021 32.2367 47.6437C32.4971 47.6854 32.7367 47.7739 32.7731 47.8312C32.8096 47.8937 32.9606 47.9458 33.1065 47.9458C33.2523 47.9458 33.6846 48.1906 34.0648 48.4875C35.1325 49.326 35.7575 50.4562 35.9919 51.9823C36.2887 53.9198 35.169 56.076 33.294 57.1698C32.1117 57.8573 30.2679 58.1958 29.0179 57.9562C27.6273 57.6854 26.0856 56.5083 25.5648 55.3156C25.3044 54.7167 25.221 53.5812 25.3512 52.4771C25.471 51.5135 25.4606 51.3312 25.2679 50.8885C24.9242 50.1125 24.0179 49.7323 23.2575 50.05C22.3617 50.425 22.0492 51.3052 22.0544 53.4771C22.0544 54.8885 22.0804 55.05 22.3929 55.8573C23.2367 58.0292 24.6846 59.6177 26.6794 60.55C26.9242 60.6594 27.2054 60.7531 27.3096 60.7531C27.4137 60.7531 27.5231 60.8052 27.5596 60.8625C27.7627 61.1854 30.8669 61.326 31.9606 61.0552C33.2471 60.7427 33.5492 60.6177 34.6898 59.9406C35.2783 59.5917 35.8096 59.3052 35.8617 59.3052C35.9137 59.3052 35.945 61.6854 35.9294 64.5917C35.8929 70.2375 35.9242 69.925 35.3096 71.0135C35.1481 71.3 34.1012 72.4198 33.7731 72.6594C33.0387 73.1906 31.8096 73.6437 30.6325 73.8156C29.2523 74.0187 27.0179 73.7219 26.4033 73.2479C26.3148 73.1802 26.0648 73.0552 25.846 72.9667C25.6325 72.8833 25.4554 72.7635 25.4554 72.7062C25.4554 72.6489 25.3877 72.5969 25.3044 72.5969C24.9242 72.5917 23.3669 70.8573 23.0283 70.0604C22.9346 69.8417 22.8408 69.6177 22.7471 69.3989C22.6637 69.1958 22.4919 68.7271 22.3773 68.3469C21.9814 67.0969 22.2887 64.8937 23.0335 63.6281C23.4033 63.0083 23.4762 62.1958 23.2106 61.7687C22.8721 61.2219 22.5335 61.0031 22.0335 60.9979C21.2106 60.9927 20.5752 61.5031 19.9971 62.6281C19.6169 63.3677 19.2106 64.5969 19.0856 65.4094L18.9867 66.0135H17.6012C16.0283 66.0083 15.419 65.8781 14.096 65.2427C12.846 64.6437 11.6012 63.4146 11.0179 62.1958C10.7835 61.7062 10.5908 61.1854 10.5908 61.0396C10.5908 60.8885 10.5439 60.7375 10.4814 60.7062C10.4242 60.6698 10.346 60.3781 10.3096 60.0604C10.2575 59.675 10.2054 59.2844 10.1533 58.8989C10.0596 58.2427 10.2992 56.4354 10.5179 56.1333C10.6065 56.0187 10.9137 55.925 11.32 55.8885C12.1169 55.8156 13.1273 55.5708 13.1273 55.451C13.1273 55.4042 13.3877 55.2687 13.7054 55.1542C14.0231 55.0396 14.5023 54.7583 14.7627 54.5292C15.0283 54.3 15.2783 54.1125 15.3252 54.1073C15.471 54.1073 16.5075 53.0812 16.7992 52.6489L17.0804 52.2375H18.2783C19.3512 52.2323 19.5075 52.2062 19.7679 51.9614C19.9294 51.8104 20.096 51.6906 20.1325 51.6906C20.1742 51.6906 20.2731 51.451 20.3617 51.1646C20.5023 50.6854 20.4919 50.5812 20.2627 50.1021C19.9294 49.3833 19.5023 49.1594 18.2314 49.0292C16.8408 48.8885 16.3721 48.7896 16.1742 48.5917C16.0856 48.5031 15.9294 48.425 15.8356 48.425C15.7367 48.425 15.5075 48.326 15.3304 48.2062C15.0387 48.0083 14.7523 47.8208 14.4606 47.6281C13.5648 47.05 13.2783 46.7427 13.1429 46.2114C12.721 44.6125 11.4502 43.7114 9.83562 43.8781C8.34603 44.0344 7.3252 45.1958 7.3252 46.7427C7.3252 48.2896 8.13249 49.2219 9.92416 49.7531C10.346 49.8781 10.4971 49.8625 11.096 49.6385L11.7887 49.3781L12.5492 49.9927C12.9658 50.3312 13.4606 50.6646 13.6429 50.7375C13.8252 50.8104 13.971 50.9302 13.971 51.0135C13.971 51.2114 12.5856 52.1021 11.8564 52.3625C11.4294 52.5187 10.9085 52.5812 10.0439 52.5812C9.01791 52.5812 8.7002 52.5292 7.92937 52.2427C7.42937 52.0552 6.72624 51.6854 6.36166 51.4146C5.58041 50.8364 4.66895 49.8989 4.66895 49.675C4.66895 49.5864 4.61166 49.5135 4.54916 49.5135C4.40853 49.5135 4.03353 48.7844 3.62207 47.701C3.21062 46.6385 3.08562 44.5031 3.38249 43.6073C3.49187 43.2739 3.58041 42.9042 3.58041 42.7792C3.58041 42.175 5.1377 39.7323 5.52312 39.7271C5.63249 39.7271 5.81478 39.8312 5.93457 39.9614C6.05437 40.0969 6.25749 40.2375 6.3877 40.2792C6.51791 40.3208 6.72624 40.4406 6.84603 40.5396C7.06478 40.7271 7.74708 41.0187 8.2627 41.1385C8.41374 41.175 8.53353 41.2531 8.53353 41.3104C8.53353 41.3677 8.65333 41.4146 8.79916 41.4146C8.94499 41.4146 9.37728 41.4823 9.75749 41.5604C10.9919 41.8156 11.9658 41.2844 12.07 40.2948C12.1742 39.2896 11.7002 38.701 10.5908 38.4562C8.75228 38.05 8.53353 37.9875 8.53353 37.8937C8.53353 37.8417 8.35645 37.7219 8.14291 37.6281C7.40853 37.326 6.39812 36.1802 5.88249 35.0708C5.46062 34.175 5.36166 33.6542 5.30437 32.0239C5.25228 30.326 5.49187 29.1906 6.15853 28.0083C6.94499 26.6125 8.05437 25.4875 9.21582 24.9146C10.2887 24.3885 10.7054 24.2635 11.9189 24.1281C12.9085 24.0187 14.669 24.1073 14.7679 24.2739C14.8044 24.3312 14.9502 24.3781 15.096 24.3781C15.2419 24.3833 15.5804 24.5187 15.846 24.6802C16.5648 25.1229 17.3408 25.0969 17.8981 24.6073C18.2992 24.2531 18.3252 24.1854 18.3252 23.4875C18.3252 22.7739 18.3044 22.7323 17.8721 22.3833C16.3304 21.1542 13.3252 20.4771 11.2939 20.8989C11.1012 20.9406 10.846 20.175 10.6794 19.0552C10.5439 18.1333 10.6429 16.8417 10.9346 15.7323C11.0856 15.1542 11.6429 14.0396 11.9814 13.6333C12.6846 12.7792 13.0804 12.3469 13.1794 12.3C13.2419 12.2739 13.4137 12.1385 13.5544 11.9979C14.0596 11.5135 15.8304 10.7792 16.9971 10.5708C18.0387 10.3885 19.7367 10.5135 20.3721 10.8208C20.6637 10.9667 20.9971 11.0812 21.1117 11.0812C21.2262 11.0812 21.3825 11.1646 21.4658 11.2635C21.5492 11.3625 21.6689 11.4458 21.7314 11.4458C21.8825 11.4458 22.1898 11.7583 22.1898 11.9042C22.1898 11.9667 22.2992 12.05 22.4346 12.0812C22.5648 12.1177 22.721 12.2739 22.7783 12.4302C22.8356 12.5864 22.9242 12.6854 22.9762 12.6542C23.0283 12.6177 23.1325 12.6958 23.2054 12.826C23.2783 12.9562 23.4919 13.2792 23.6742 13.5396C23.8565 13.8052 24.0023 14.1437 24.0023 14.2948C24.0023 14.6125 24.4502 15.3417 24.7679 15.5448C25.169 15.8 26.1012 15.8417 26.5231 15.6229C27.3148 15.2114 27.4658 13.8885 26.8408 12.7896C26.6742 12.4979 26.544 12.201 26.544 12.1229C26.544 12.05 26.4085 11.8364 26.2419 11.6594C26.0752 11.4823 25.9398 11.2844 25.9398 11.2219C25.9398 11.0187 24.3096 9.45624 23.6169 8.9979C22.9658 8.56561 22.945 8.53436 23.0335 8.15415C23.0804 7.93541 23.2367 7.56561 23.3825 7.33645C23.5231 7.10207 23.6429 6.81561 23.6429 6.70103C23.6429 6.58645 23.695 6.48749 23.7575 6.48749C23.8252 6.48749 23.9554 6.34165 24.0544 6.15415C24.1533 5.97186 24.4294 5.63332 24.669 5.39895C24.9085 5.16978 25.221 4.85207 25.3617 4.70103C25.6585 4.39374 26.6117 3.83124 26.846 3.83124C26.9294 3.83124 27.0596 3.75311 27.1377 3.65936C27.2158 3.56561 27.4814 3.46145 27.7262 3.42499C27.971 3.39374 28.5023 3.29999 28.8981 3.22186C29.6585 3.07603 30.8981 3.14374 31.6169 3.3677C32.3148 3.58124 33.1898 3.98228 33.3304 4.15415C33.4033 4.2427 33.5335 4.31561 33.6169 4.31561C33.8565 4.31561 35.0492 5.52915 35.4085 6.14374C35.5856 6.44582 35.7262 6.8052 35.7262 6.94582C35.7262 7.08645 35.7835 7.23228 35.8512 7.27395C35.9867 7.35728 36.0231 18.0917 35.8877 18.0917C35.846 18.0917 35.7054 18.0031 35.5856 17.8885C35.2627 17.6021 34.0075 16.9302 33.3721 16.7114C32.9398 16.5604 31.3304 16.2792 30.9085 16.2792C30.2992 16.2792 29.6064 16.5187 29.3148 16.8312C28.9919 17.175 28.8721 18.0708 29.0752 18.5656C29.2992 19.1021 29.695 19.2948 30.8669 19.4406C33.2992 19.7427 35.044 21.1385 35.7315 23.326C35.9502 24.0239 35.9658 24.4667 35.9658 29.7219C35.971 32.8312 35.9346 35.3729 35.8981 35.3729C35.8564 35.3729 35.544 35.1229 35.2002 34.8156C34.4606 34.1489 33.1481 33.201 32.971 33.201C32.9033 33.201 32.8304 33.1594 32.8096 33.1073C32.7419 32.9667 31.5439 32.3521 31.3304 32.3521C31.221 32.3521 31.1377 32.3 31.1377 32.2323C31.1377 32.1646 31.0023 32.1125 30.8408 32.1125C30.6794 32.1125 30.5127 32.0552 30.471 31.9927C30.4294 31.925 30.3096 31.8677 30.2106 31.8677C30.1064 31.8677 29.8512 31.7896 29.6429 31.6958C29.4346 31.5969 28.9502 31.4302 28.57 31.326C28.1898 31.2167 27.846 31.076 27.8044 31.0135C27.7679 30.951 27.6325 30.9042 27.5023 30.9042C27.2887 30.9042 27.0648 30.8156 26.544 30.5239C26.445 30.4667 26.1585 30.3312 25.9085 30.2271C25.6585 30.1177 25.4554 29.9823 25.4554 29.9198C25.4554 29.8625 25.3773 29.8156 25.2835 29.8156C25.07 29.8156 23.6429 28.3833 23.6429 28.1698C23.6429 28.0812 23.7627 27.9458 23.9137 27.8677C24.1533 27.7427 24.6117 27.2844 25.4502 26.3364C25.5856 26.1854 25.695 25.9562 25.695 25.8312C25.695 25.701 25.7471 25.5656 25.8096 25.5292C25.9919 25.4146 26.3096 24.1698 26.3877 23.2844C26.4554 22.4719 26.2783 21.1229 26.0179 20.4562C25.5179 19.1802 24.5544 17.8833 23.7158 17.3573C23.4554 17.1958 23.1846 17.0083 23.1065 16.9406C22.6377 16.5344 20.8669 15.925 20.1377 15.9198C19.9189 15.9146 19.7367 15.7687 19.4762 15.3885C19.2783 15.0969 18.8512 14.6594 18.5231 14.4198C17.9762 14.0135 17.8669 13.9823 17.096 13.9823C16.1377 13.9823 15.6533 14.1542 15.0127 14.7114C14.3512 15.2948 14.096 15.8781 14.096 16.8208C14.096 18.3989 14.8981 19.3677 16.4971 19.7219C17.0335 19.8364 18.0856 19.5864 18.7158 19.1854C19.221 18.8677 19.2939 18.8521 19.8773 18.9667C20.221 19.0344 20.4971 19.1385 20.4971 19.1958C20.4971 19.2531 20.6273 19.3 20.7835 19.3C20.9398 19.3 21.2783 19.4614 21.5283 19.6646C21.7783 19.8625 22.0283 20.0239 22.0804 20.0239C22.1377 20.0239 22.3825 20.3625 22.6325 20.7792C23.0387 21.4667 23.0856 21.6281 23.1169 22.5239C23.1377 23.1698 23.0856 23.6958 22.9658 24.0448C22.7106 24.8052 21.9919 25.5083 21.2679 25.7062C20.945 25.7948 20.5023 26.0083 20.2887 26.1802C19.9398 26.4562 19.8929 26.5604 19.8929 27.0864C19.8929 28.0917 20.7887 29.9302 21.6689 30.7375C21.8252 30.8781 21.9502 31.0552 21.9502 31.1281C21.9502 31.201 21.9919 31.2635 22.0387 31.2687C22.0908 31.2687 22.3929 31.5135 22.7106 31.8104C23.0283 32.1073 23.3617 32.3521 23.4502 32.3521C23.544 32.3521 23.6429 32.4198 23.6742 32.5083C23.7835 32.7844 26.5231 34.0239 27.7523 34.3469C27.9189 34.3885 28.2158 34.4979 28.4137 34.5864C28.6169 34.6802 29.0752 34.8677 29.445 35.0135C31.5439 35.8364 33.0544 36.8989 34.07 38.2635C35.346 39.9719 35.8721 41.3469 36.0335 43.4094C36.1325 44.6906 36.2627 44.9927 36.8721 45.3521C37.7783 45.8781 38.544 45.675 38.9971 44.7896C39.2262 44.3364 39.2315 43.9094 39.2315 26.1646C39.2315 7.79478 39.2158 7.19582 38.7887 5.82603C38.5231 4.9927 37.4762 3.41457 36.6325 2.59165C36.1169 2.08645 35.1481 1.41978 34.3981 1.0552C33.9658 0.846863 33.5127 0.617697 33.3929 0.555196C32.5752 0.10728 29.8096 -0.137513 28.1065 0.0812376ZM48.9606 0.0395709C48.0908 0.102071 47.1898 0.336446 46.1846 0.753113C45.9815 0.836446 45.7367 0.935404 45.6377 0.977071C45.5387 1.01874 45.3148 1.14895 45.1429 1.26353C44.971 1.37811 44.6169 1.61249 44.3565 1.78957C43.5752 2.3104 41.8929 4.06561 41.8929 4.36249C41.8929 4.40936 41.7575 4.62811 41.5908 4.84686C41.4242 5.06561 41.2887 5.32082 41.2887 5.41457C41.2887 5.51353 41.2054 5.71145 41.1012 5.85728C40.9606 6.0552 40.8877 6.62811 40.82 8.09165C40.6689 11.2687 40.7419 44.4406 40.8981 44.8156C41.1064 45.326 41.7158 45.6854 42.346 45.675C42.8044 45.6698 42.9606 45.6021 43.3148 45.2427C43.7315 44.8312 43.7419 44.7896 43.8408 43.5344C43.9762 41.8208 44.0648 41.4719 44.721 40.0864C45.0023 39.4927 45.1377 39.2427 45.4242 38.826C45.721 38.3833 46.9033 37.1073 47.096 37.0187C47.2262 36.9562 47.3304 36.8625 47.3304 36.8052C47.3304 36.6333 48.7835 35.7479 49.6846 35.3729C50.0648 35.2114 50.471 35.0396 51.2158 34.7167C51.4606 34.6125 51.7419 34.5292 51.846 34.5292C51.945 34.5292 52.0596 34.4823 52.096 34.4198C52.1325 34.3625 52.4658 34.2792 52.8356 34.2323C53.2419 34.1802 53.5335 34.076 53.5752 33.9771C53.6117 33.8729 53.8044 33.8052 54.0335 33.8052C54.2679 33.8052 54.5075 33.7062 54.6429 33.5604C54.7627 33.4302 54.919 33.3208 54.9919 33.3208C55.1742 33.3208 56.4346 32.4562 57.2471 31.7687C57.8408 31.2739 58.3721 30.675 58.7523 30.0656C58.82 29.9614 58.9919 29.701 59.1429 29.4927C59.294 29.2792 59.4137 29.0187 59.4137 28.9146C59.4137 28.8104 59.4658 28.7271 59.5283 28.7271C59.7106 28.7271 60.0075 27.6125 59.9606 27.1125C59.9033 26.4979 59.3564 25.925 58.6481 25.7375C57.9398 25.5448 57.3304 24.8573 57.0544 23.9354C56.7002 22.7635 56.8877 21.3781 57.4971 20.6646C57.6794 20.4562 57.8721 20.2114 57.9242 20.1229C58.1794 19.7219 59.6481 19.0604 60.2679 19.0604C60.5387 19.0604 60.8981 19.1542 61.0752 19.2687C62.3356 20.0917 64.2419 19.8833 65.1377 18.8208C65.7106 18.1333 65.8669 17.7219 65.8617 16.8833C65.8565 15.701 65.2315 14.6802 64.1898 14.1281C63.6637 13.8521 62.3617 13.8937 61.7523 14.201C61.3044 14.4302 60.1429 15.576 60.1429 15.7896C60.1429 15.8417 59.8304 15.9094 59.445 15.9354C58.2106 16.0239 56.2783 17.0917 55.3981 18.1646C54.1273 19.7114 53.6742 21.0135 53.6846 23.0448C53.6898 24.3364 53.721 24.5031 54.0908 25.3781C54.3981 26.1125 54.6846 26.5292 55.3981 27.2844C56.2992 28.2427 56.3044 28.2531 56.0856 28.5187C55.221 29.576 53.6846 30.6281 52.695 30.8469C52.3356 30.925 52.1742 30.9823 51.419 31.3156C51.1794 31.4198 50.8669 31.5083 50.7262 31.5083C50.5856 31.5083 50.471 31.5604 50.471 31.6281C50.471 31.6958 50.3877 31.7479 50.2887 31.7479C49.8877 31.7479 47.6117 32.7896 46.6637 33.4042C45.4606 34.1906 44.3096 35.0917 44.3096 35.2583C44.3096 35.3208 44.2315 35.3729 44.1429 35.3729C43.7575 35.3729 43.7158 24.6437 44.096 23.5292C44.32 22.8677 44.6898 22.0708 44.8512 21.8781C44.919 21.8052 45.1377 21.5396 45.3356 21.3C45.695 20.8521 46.9762 19.9042 47.2158 19.9042C47.2835 19.9042 47.4867 19.826 47.669 19.7375C47.846 19.6437 48.5127 19.5031 49.1377 19.425C50.3408 19.2792 50.596 19.1542 50.9085 18.55C51.1429 18.1021 51.1221 17.6802 50.8356 17.1229C50.5335 16.5344 50.2679 16.3885 49.4033 16.3469C47.8669 16.2635 45.6273 16.8833 44.5908 17.675C44.3773 17.8364 44.1533 17.9719 44.0908 17.9719C44.0179 17.9719 43.9658 16.7479 43.9554 14.8573C43.945 13.1489 43.9085 10.8729 43.8825 9.8052C43.8304 8.04478 43.846 7.81561 44.0648 7.36249C44.2002 7.08645 44.3096 6.76353 44.3096 6.64374C44.3096 6.38332 44.9815 5.52395 45.721 4.83124C46.3148 4.27395 47.6637 3.58645 48.57 3.36249C49.3773 3.16978 51.1742 3.19061 52.0075 3.40415C52.8981 3.63853 53.3721 3.83124 53.3721 3.96665C53.3721 4.02395 53.445 4.07082 53.5335 4.07082C53.7106 4.07082 55.0596 4.93541 55.0648 5.04999C55.0648 5.08645 55.2783 5.34686 55.5387 5.62811C55.7992 5.90936 56.0752 6.29999 56.1585 6.4979C56.2367 6.69061 56.3512 6.85207 56.4085 6.85207C56.4658 6.85207 56.5179 6.92499 56.5179 7.01874C56.5179 7.11249 56.6221 7.42499 56.7523 7.71665C56.8877 8.00311 56.9971 8.29999 56.9971 8.37811C56.9971 8.45103 56.6846 8.70624 56.3044 8.95103C55.2367 9.6177 53.8304 11.175 53.2835 12.2896C52.3981 14.1073 52.4554 15.201 53.4554 15.6698C53.7419 15.8052 54.0856 15.9146 54.221 15.9146C54.8877 15.9146 55.7887 15.2114 55.7887 14.6958C55.7887 14.2427 56.5544 12.9927 57.2783 12.2531C58.0231 11.4979 58.6898 11.1073 59.971 10.675C60.7367 10.4146 62.8565 10.4146 63.3512 10.675C63.5283 10.7635 63.8512 10.8417 64.07 10.8417C64.2835 10.8417 64.5283 10.9198 64.6117 11.0187C64.695 11.1229 64.8252 11.201 64.9033 11.201C65.1117 11.201 65.9137 11.6542 66.1846 11.9302C66.32 12.0604 66.4762 12.1698 66.5335 12.1698C66.6898 12.1698 67.3929 12.8469 67.3929 12.9979C67.3929 13.0708 67.5023 13.1854 67.6325 13.2583C67.7679 13.326 67.8773 13.4614 67.8773 13.5552C67.8773 13.6437 67.919 13.7375 67.9658 13.7583C68.1481 13.8417 68.6846 14.7792 68.8773 15.3417C68.9815 15.6594 69.1377 16.4562 69.2158 17.1125C69.3408 18.1437 69.3304 18.4614 69.1533 19.4614C69.0387 20.0969 68.8773 20.675 68.794 20.7427C68.7054 20.8156 68.32 20.8417 67.8669 20.8104C66.4606 20.6958 64.1012 21.1802 62.7835 21.8469C62.1429 22.175 61.5908 22.8885 61.5908 23.3937C61.5908 23.9146 61.9919 24.5708 62.4658 24.8156C62.9242 25.05 63.4867 24.9875 64.4398 24.576C64.8825 24.3885 65.6012 24.2114 66.2523 24.1385C67.32 24.0187 68.9137 24.0812 69.1429 24.2583C69.2106 24.3052 69.4033 24.3833 69.57 24.425C70.1065 24.5708 71.4867 25.2792 71.4971 25.4146C71.4971 25.4875 71.6481 25.6125 71.8252 25.6906C72.3981 25.9562 73.7992 27.6906 73.7992 28.1385C73.7992 28.2635 73.846 28.3625 73.9033 28.3625C74.0544 28.3625 74.4346 29.4198 74.3408 29.576C74.2992 29.6489 74.3512 29.8469 74.4658 30.0187C74.6429 30.2844 74.6637 30.5708 74.6169 31.9771C74.5648 33.5083 74.3669 34.5604 74.0335 35.1333C73.9762 35.2323 73.8356 35.4927 73.7262 35.7062C73.6169 35.925 73.221 36.425 72.8408 36.8156C72.0023 37.6854 70.9762 38.2167 69.9033 38.3312C68.8304 38.451 68.2262 38.7635 67.9867 39.326C67.7158 39.9614 67.82 40.6437 68.2523 41.1073L68.6012 41.4771L69.9346 41.4719C70.7835 41.4667 71.3148 41.4094 71.4085 41.3208C71.4867 41.2375 71.669 41.175 71.8096 41.175C72.096 41.175 72.7887 40.8625 72.8981 40.6854C72.9346 40.6229 73.07 40.5708 73.195 40.5708C73.3252 40.5708 73.6169 40.3833 73.8512 40.1489C74.3669 39.6333 74.5283 39.6229 74.8044 40.0864C74.9242 40.2896 75.0752 40.451 75.1377 40.451C75.2054 40.451 75.3617 40.6802 75.4919 40.9614C75.6221 41.2479 75.7731 41.5604 75.8304 41.6594C76.195 42.3052 76.3356 42.6958 76.3356 43.0448C76.3356 43.2635 76.4137 43.5917 76.5075 43.7739C76.7158 44.1698 76.6794 46.2635 76.4554 47.1073C76.3148 47.6385 75.7575 48.9146 75.6169 49.0292C75.5804 49.0656 75.4815 49.2427 75.3981 49.4302C75.0544 50.2062 73.4502 51.6333 72.346 52.1333C70.5492 52.9458 68.1377 52.7479 66.7054 51.6646C66.0387 51.1594 65.9815 50.8989 66.5023 50.7687C66.6585 50.7323 66.7887 50.6594 66.7887 50.6177C66.7887 50.5708 66.9398 50.4458 67.1273 50.3312C67.3148 50.2219 67.6012 49.9979 67.7679 49.8312C68.0596 49.5396 68.0908 49.5344 68.9762 49.6594C70.2419 49.8364 71.0492 49.6021 71.8565 48.8156C72.3512 48.3364 72.4658 48.1333 72.5856 47.5604C72.7627 46.6854 72.6637 46.1125 72.1898 45.3208C71.7575 44.5812 71.0596 44.05 70.2887 43.8573C69.5856 43.6854 68.5387 43.9094 67.9502 44.3625C67.4606 44.7323 66.846 45.7583 66.7262 46.3937C66.6585 46.7479 66.5023 46.951 65.9294 47.3989C64.5908 48.451 62.7523 49.1542 61.3252 49.1542C60.6481 49.1542 60.1533 49.3729 59.794 49.826C59.2471 50.5239 59.3617 51.4614 60.0544 51.9562C60.346 52.1646 60.6377 52.2219 61.6377 52.2635C62.5856 52.3052 62.8929 52.3625 63.0127 52.5187C63.3773 52.9927 64.6585 54.2114 64.9554 54.3625C65.1325 54.4562 65.3669 54.6229 65.4762 54.7427C65.5856 54.8625 65.9502 55.0396 66.2887 55.1437C66.6325 55.2427 66.9085 55.3677 66.9085 55.4146C66.9085 55.4979 68.0283 55.7583 68.9242 55.8885C69.3408 55.951 69.4658 56.1542 69.6846 57.1281C69.9137 58.1646 69.7992 60.0292 69.4502 60.9354C68.8512 62.4927 68.3929 63.2427 67.5596 64.05C66.5752 64.9979 65.6742 65.5239 64.3981 65.8937C63.6898 66.1021 61.169 66.1958 60.8929 66.0292C60.8096 65.9771 60.7471 65.6906 60.7471 65.3781C60.7471 64.8 60.5908 64.1854 60.3096 63.6385C60.2158 63.4614 60.1429 63.2219 60.1429 63.1073C60.1429 62.8573 59.695 62.0083 59.3617 61.6177C59.0179 61.2219 58.5335 60.9979 58.0387 60.9979C57.7106 60.9979 57.5023 61.1021 57.1065 61.4771L56.6012 61.9562L56.6846 62.7739C56.7315 63.2219 56.8408 63.6698 56.9242 63.7739C57.169 64.0656 57.5856 65.4927 57.6742 66.3417C57.7731 67.3104 57.346 69.4042 56.945 69.9406C56.8669 70.0396 56.7262 70.2792 56.6325 70.4719C56.096 71.5448 53.7002 73.4458 52.8929 73.4458C52.7783 73.4458 52.6481 73.4875 52.6012 73.5344C52.5492 73.5812 52.1221 73.6906 51.6429 73.7687C50.721 73.925 48.3565 73.7792 48.1221 73.5552C48.0596 73.4927 47.8929 73.4458 47.7523 73.4458C47.3148 73.4458 46.1794 72.7479 45.4294 72.0187C44.7367 71.3469 44.2262 70.55 43.9554 69.7114C43.7992 69.2167 43.7731 59.1854 43.9294 59.1854C43.9867 59.1854 44.1585 59.3 44.32 59.4406C44.4814 59.576 44.721 59.7427 44.8512 59.8052C44.9867 59.8625 45.3929 60.076 45.7575 60.2739C46.1221 60.4719 46.4658 60.6333 46.5231 60.6333C46.5804 60.6333 46.7992 60.7114 47.0075 60.8052C47.6533 61.0917 48.1742 61.1594 49.8669 61.1646C51.2367 61.1698 51.6377 61.1281 52.346 60.9042C53.8617 60.4198 54.7783 59.8677 55.7158 58.8937C56.8981 57.6542 57.5387 56.3729 57.846 54.6489C58.0335 53.5708 57.8669 51.4927 57.5283 50.7531C57.1012 49.8156 55.419 49.7427 54.8773 50.6385C54.6742 50.9771 54.6429 51.2635 54.6377 52.8989C54.6325 54.8312 54.6221 54.8781 54.0387 55.9146C53.7679 56.3885 52.6533 57.3729 52.1637 57.5656C52.0648 57.6021 51.8773 57.6854 51.7419 57.7427C51.2054 57.9823 49.9242 58.0917 49.1429 57.9667C47.3877 57.6854 46.6065 57.326 45.5596 56.3156C44.4606 55.2479 43.9137 54.0292 43.9242 52.6594C43.9398 51.2948 44.3408 50.0656 45.0387 49.2479C45.4971 48.7167 46.4919 47.9458 46.7158 47.9458C46.7731 47.9458 46.9762 47.8625 47.1637 47.7635C47.3564 47.6646 47.5908 47.5812 47.695 47.5812C47.9867 47.5812 48.6585 47.1177 48.6585 46.9198C48.6585 46.8156 48.7158 46.7375 48.7783 46.7375C48.9658 46.7375 48.9242 45.7271 48.7158 45.3156C48.4137 44.7062 48.0283 44.5344 47.1065 44.5917C46.3617 44.6385 45.2992 44.9458 45.1585 45.1542C45.1221 45.201 44.9085 45.3469 44.6742 45.4771C43.919 45.8937 42.3721 47.3885 41.9294 48.1229C41.4554 48.9094 41.0023 50.0448 40.8512 50.8208C40.6325 51.9771 40.6012 68.9875 40.82 70.1333C41.1637 71.9354 42.4867 73.8521 44.3044 75.1646C44.7367 75.4823 45.1585 75.7948 45.2419 75.8625C45.32 75.9302 45.4398 75.9823 45.5075 75.9823C45.57 75.9823 45.8044 76.0812 46.0231 76.2062C46.8773 76.6802 48.8773 77.0708 50.4815 77.0708C52.5752 77.0708 54.3669 76.5135 56.2731 75.2687C56.6377 75.0292 57.0231 74.7531 57.1273 74.6542C57.2315 74.5552 57.4762 74.3312 57.6742 74.1542C58.0492 73.8156 58.1898 73.6542 58.7523 72.8989C58.9502 72.6333 59.1481 72.3885 59.1898 72.3573C59.3721 72.2062 60.1064 70.7792 60.3356 70.1229L60.5856 69.3937L62.2679 69.3208C63.4398 69.2687 64.2419 69.1646 64.9137 68.9771C65.445 68.826 66.0179 68.675 66.1846 68.6385C66.6221 68.5448 67.9554 67.8104 68.6742 67.2739C69.4137 66.7219 71.0752 64.951 71.4606 64.3C72.3721 62.7635 72.6898 61.9146 72.9554 60.2739C73.1377 59.1802 73.0335 57.0864 72.7575 56.2479C72.5544 55.6333 72.596 55.3156 72.8773 55.3156C72.971 55.3156 73.3877 55.1281 73.7992 54.8937C74.2106 54.6594 74.6221 54.4719 74.7158 54.4719C74.8096 54.4719 74.8877 54.425 74.8877 54.3729C74.8877 54.3156 75.0908 54.1594 75.346 54.0135C75.596 53.8729 75.9762 53.5708 76.1846 53.3364C76.3981 53.1073 76.6377 52.8729 76.7262 52.8156C76.945 52.675 78.0283 51.3729 78.0283 51.2427C78.0283 51.1854 78.1377 51.0448 78.2731 50.9302C78.4085 50.8156 78.5492 50.5604 78.5908 50.3677C78.6273 50.175 78.7367 49.9823 78.8252 49.951C78.919 49.9146 78.9971 49.7896 78.9971 49.6698C78.9971 49.55 79.1065 49.2479 79.2367 48.9979C79.3721 48.7531 79.4815 48.3833 79.4815 48.1854C79.4815 47.9823 79.5283 47.7271 79.5856 47.6073C79.7367 47.3208 79.9606 45.7687 79.9606 45.0708C79.9554 43.7739 79.0648 40.3312 78.7367 40.3312C78.6794 40.3312 78.6325 40.2427 78.6325 40.1437C78.6325 39.9667 77.8565 38.6542 77.6742 38.5187C77.6273 38.4823 77.4346 38.2375 77.2367 37.9719C77.0387 37.7062 76.8096 37.4146 76.7262 37.326C76.596 37.1854 76.6012 37.1229 76.7523 36.951C76.8565 36.8364 76.9398 36.6281 76.9398 36.4875C76.9398 36.3417 77.0492 36.05 77.1846 35.8312C77.3148 35.6125 77.4242 35.3156 77.4242 35.1646C77.4242 35.0187 77.5023 34.7219 77.6012 34.5031C77.8669 33.9198 77.9971 31.6125 77.8408 30.3364C77.6221 28.5708 76.8044 26.5344 75.794 25.2323C74.9398 24.1333 72.669 22.1646 71.9971 21.9406C71.8929 21.9094 71.9033 21.7948 72.0335 21.5344C72.5648 20.4562 72.7523 17.5969 72.3981 15.9771C72.294 15.5135 72.1846 14.951 72.1481 14.7375C72.1117 14.5239 72.0335 14.3469 71.971 14.3469C71.9137 14.3469 71.8669 14.2583 71.8669 14.1489C71.8669 13.7427 70.794 11.9979 69.9919 11.0969C69.0492 10.0344 68.2575 9.38332 66.9294 8.57603C66.3773 8.23749 66.2731 8.19582 64.4346 7.56561C64.1117 7.45624 63.2731 7.39374 61.9554 7.37811C59.9867 7.35207 59.9658 7.35207 59.8877 7.07082C59.5752 5.9302 58.3252 3.76353 57.5127 2.95624C57.1169 2.5604 55.9658 1.66457 55.544 1.42499C54.4971 0.820821 53.2731 0.331237 52.8252 0.326029C52.6846 0.326029 52.5231 0.273946 52.4606 0.216654C52.3304 0.0916543 49.8929 -0.0333464 48.9606 0.0395709ZM29.3825 7.41457C27.7262 8.28436 27.2002 10.1229 28.1585 11.7062C28.6898 12.5917 29.4554 13.0083 30.5648 13.0135C31.9398 13.0187 33.0075 12.2687 33.3721 11.0448C33.6169 10.2219 33.6012 9.76353 33.3044 9.06561C33.0023 8.36249 32.7002 8.01874 31.9867 7.5604C31.5231 7.25832 31.3356 7.21665 30.596 7.21665C30.0648 7.22186 29.6117 7.29478 29.3825 7.41457ZM48.1221 7.46145C47.4398 7.8052 47.1065 8.14895 46.7315 8.91457C46.4398 9.51353 46.4137 9.67499 46.4867 10.3104C46.695 12.0552 47.7731 13.0396 49.4815 13.0344C52.0752 13.0292 53.2471 9.76874 51.3044 7.97186C51.0387 7.72707 50.6533 7.45624 50.4502 7.3677C49.8929 7.13332 48.6846 7.1802 48.1221 7.46145ZM29.8825 23.4146C29.3096 23.5864 28.6012 24.1489 28.294 24.6698C27.721 25.6542 27.7835 26.8677 28.4502 27.8677C29.6533 29.6489 32.4033 29.5656 33.4971 27.7062C33.7575 27.2583 33.8148 27.0083 33.8148 26.326C33.8148 24.9979 33.1481 23.9406 32.0127 23.4667C31.5544 23.2739 30.4398 23.2479 29.8825 23.4146ZM47.5596 23.6281C46.6117 24.1177 46.195 24.8364 46.1377 26.0708C46.1012 26.8729 46.1377 27.076 46.4085 27.6073C46.9502 28.675 47.8512 29.2114 49.096 29.2062C51.1169 29.201 52.5127 26.9667 51.6742 25.1021C50.9294 23.4614 49.1169 22.8104 47.5596 23.6281ZM11.221 27.0292C10.6273 27.175 9.90332 27.7062 9.56478 28.2375C9.40332 28.4979 9.21582 29.0448 9.14812 29.451C9.03874 30.1177 9.05957 30.2792 9.33041 31.0031C9.66374 31.9094 10.0596 32.3 10.9502 32.6177C11.6481 32.8677 12.7783 33.0083 12.8721 32.8573C13.0023 32.6489 13.4346 32.6333 13.3825 32.8364L13.1012 33.8625C12.7627 35.1281 12.7627 37.5396 13.1064 38.8C13.2471 39.3208 13.445 39.9146 13.5492 40.1177C13.6481 40.3208 13.7314 40.5396 13.7314 40.6073C13.7314 40.675 13.8564 40.8989 14.0075 41.1021C14.1585 41.3104 14.3617 41.6385 14.4606 41.8312C14.7106 42.326 16.1481 43.8417 16.7679 44.2635C17.0544 44.4614 17.3877 44.7167 17.5023 44.8312C17.6221 44.9458 17.7992 45.0448 17.8929 45.0448C17.9867 45.0448 18.1377 45.1125 18.2262 45.1958C18.6117 45.5604 21.1689 46.3104 22.5075 46.4458C23.9919 46.6021 26.596 46.0396 28.2835 45.2114C29.945 44.3885 31.5283 43.0864 31.6481 42.4354C31.7679 41.8312 31.6064 41.2062 31.2419 40.8573C30.9346 40.5656 30.7992 40.5239 30.1273 40.5239C29.4919 40.5239 29.3096 40.576 29.07 40.8C28.9085 40.9562 28.5856 41.2219 28.3565 41.3989C28.1221 41.576 27.9033 41.7531 27.8721 41.7948C27.7158 41.9875 26.3044 42.6489 25.5856 42.8625C23.6637 43.4354 21.1481 43.2479 19.6377 42.4198C18.8304 41.9771 18.4502 41.675 17.7054 40.8885C16.5492 39.6698 15.9762 38.0604 16.07 36.3C16.1481 34.8677 16.2471 34.1906 16.445 33.7427C16.846 32.8469 16.9398 32.6489 17.0023 32.5969C17.32 32.3052 17.7106 31.5969 17.7783 31.175C17.8773 30.576 17.5804 29.9719 17.0387 29.6854C16.6637 29.4823 15.4658 29.4823 15.2679 29.6802C15.07 29.8781 14.9398 29.8417 14.9398 29.5864C14.9398 29.2531 14.4971 28.3052 14.1377 27.8833C13.9658 27.675 13.6221 27.4094 13.3825 27.2844C12.8617 27.0187 11.7731 26.8885 11.221 27.0292ZM67.3929 27.0292C66.5335 27.2792 65.794 27.8729 65.4658 28.5708C65.3825 28.7583 65.294 28.9354 65.2054 29.1177C65.1429 29.2323 65.096 29.4094 65.096 29.5031C65.096 29.7896 64.9085 29.826 64.4919 29.6177C64.0492 29.3937 62.9137 29.451 62.6012 29.7062C62.3512 29.9146 61.9554 30.7219 61.9554 31.0187C61.9554 31.3677 62.4242 32.3312 62.7627 32.6646C62.9137 32.8208 63.044 33.0396 63.044 33.1542C63.044 33.2687 63.1169 33.4458 63.2106 33.55C63.5023 33.8833 63.8877 35.5187 63.8877 36.4302C63.8877 38.0604 63.2367 39.8208 62.2575 40.8364C61.2002 41.9354 60.1898 42.55 58.6898 43.0031C57.919 43.2375 55.4502 43.201 54.5231 42.9458C53.6533 42.7062 52.2106 42.0187 51.8356 41.6698C51.6898 41.5292 51.5179 41.4198 51.4554 41.4198C51.3877 41.4198 51.2367 41.2948 51.1169 41.1437C50.7887 40.7375 50.2992 40.5292 49.669 40.5292C49.1742 40.5292 49.0544 40.5864 48.7002 40.9719C48.346 41.3625 48.2992 41.4927 48.2992 42.0917C48.2992 42.7583 48.3096 42.7792 49.0179 43.4771C49.4137 43.8677 49.9658 44.3104 50.2367 44.4667L51.0648 44.9198C52.9658 45.9771 55.8148 46.6021 57.6637 46.3729C59.1637 46.1854 61.5908 45.4979 61.5908 45.2635C61.5908 45.2062 61.6689 45.1646 61.7575 45.1646C62.3044 45.1646 65.0856 42.6229 65.5023 41.7375C65.6065 41.5187 65.7992 41.2427 65.9346 41.1177C66.0752 40.9979 66.1846 40.7792 66.1846 40.6385C66.1846 40.4927 66.2367 40.326 66.2992 40.2635C66.3617 40.201 66.5335 39.7427 66.6794 39.2427C66.8825 38.5604 66.9606 37.9354 66.9971 36.7062C67.0492 34.9719 66.9242 33.9771 66.5335 33.1073C66.221 32.4042 66.2471 32.3 66.6585 32.6073C67.169 32.9875 68.4398 32.9823 69.2367 32.6021C70.3044 32.0864 70.8981 31.1542 70.8981 29.9771C70.8981 29.0917 70.7002 28.5396 70.1742 27.9614C69.4398 27.1542 68.294 26.7687 67.3929 27.0292ZM55.4867 34.8521C55.2887 34.8885 55.1012 34.951 55.0648 34.9979C55.0335 35.0448 54.794 35.2427 54.5335 35.4406C53.0544 36.55 53.169 39.2375 54.7471 40.2687C55.1012 40.5031 56.1221 40.8104 56.5387 40.8104C57.0596 40.8156 58.1325 40.3625 58.4762 39.9979C59.1221 39.3104 59.294 38.8729 59.294 37.9458C59.294 36.9979 59.1742 36.6281 58.6533 35.9614C58.0127 35.1437 56.6533 34.6698 55.4867 34.8521ZM22.195 35.2167C21.0179 35.8364 20.3981 36.9667 20.5648 38.201C20.7158 39.326 21.2887 40.0969 22.3148 40.5604C23.6742 41.1802 25.5335 40.5187 26.1742 39.1906C26.5752 38.3677 26.5023 37.1021 26.0023 36.3208C25.4971 35.5239 24.5596 34.9719 23.596 34.9146C22.9658 34.8781 22.7627 34.9198 22.195 35.2167ZM29.5648 49.5604C28.945 49.7583 28.044 50.7062 27.8617 51.3417C27.2575 53.4771 28.5596 55.3156 30.6637 55.3156C31.6221 55.3156 32.1846 55.1021 32.7627 54.5239C33.346 53.9458 33.5544 53.3885 33.5544 52.3989C33.5544 51.3364 33.2471 50.6489 32.5492 50.1489C31.5283 49.4198 30.596 49.2323 29.5648 49.5604ZM47.9658 49.5864C47.445 49.8156 46.7106 50.5552 46.4346 51.1385C46.2627 51.5083 46.2262 51.8 46.2679 52.4927C46.3408 53.6177 46.7627 54.3573 47.6273 54.8885C48.1585 55.2167 48.3148 55.2531 49.195 55.2531C50.2679 55.2479 50.6325 55.1125 51.2731 54.4771C52.7419 53.0344 52.2575 50.425 50.3773 49.6229C49.7471 49.3521 48.544 49.3312 47.9658 49.5864ZM14.8408 57.2323C13.6377 57.6594 12.9919 58.6073 12.9919 59.951C12.9919 61.6854 14.2367 62.9302 15.9658 62.9302C17.6221 62.9302 18.9398 61.4771 18.7731 59.8312C18.6585 58.7531 18.2523 58.1125 17.346 57.5917C16.3669 57.0292 15.695 56.9302 14.8408 57.2323ZM63.0908 57.201C60.5544 58.1021 60.4189 61.7219 62.8825 62.7479C63.1169 62.8469 63.6794 62.9302 64.1221 62.9302C64.8044 62.9302 65.0127 62.8781 65.4658 62.5812C66.2419 62.0812 66.6221 61.6281 66.8512 60.9042C67.294 59.55 66.7471 58.1646 65.4658 57.3989C64.7158 56.9562 63.9658 56.8937 63.0908 57.201ZM27.9137 63.8469C26.5804 64.4927 25.9658 66.0656 26.4867 67.5292C26.9294 68.7896 27.9033 69.4562 29.2887 69.451C30.3408 69.451 31.0283 69.1125 31.6481 68.3C33.4867 65.8781 30.6689 62.5135 27.9137 63.8469ZM49.8044 63.7271C49.1481 63.9614 48.4867 64.5239 48.1012 65.1802C47.8512 65.6073 47.7835 65.8833 47.7835 66.4719C47.7835 68.2219 49.0127 69.4614 50.7419 69.4562C52.4502 69.4458 53.6585 68.2739 53.6533 66.6177C53.6533 64.4823 51.7315 63.0396 49.8044 63.7271Z" fill="#FBF8EF"/>
</svg>
